<svg width="30" height="34" viewBox="0 0 30 34" fill="none" xmlns="http://www.w3.org/2000/svg">
<path fill-rule="evenodd" clip-rule="evenodd" d="M0.142854 31.5335C0.142854 31.5335 0.133213 33.4835 2.30516 33.4835C4.47711 33.4835 7.71094 30.8244 7.71094 30.8244C7.71094 30.8244 3.69265 23.1233 3.7467 13.0086C3.7467 13.0086 8.77849 24.502 14.1979 27.7222C14.1979 27.7222 18.7765 23.6902 20.5947 15.5791C20.5947 15.5791 22.1298 17.8458 22.0362 22.7586L27.7123 19.479C27.7123 19.479 29.1997 18.7611 29.1538 17.1745C29.1026 15.4004 26.9014 14.5154 26.9014 14.5154L15.0988 7.86774C15.0988 7.86774 16.0352 12.0691 13.9276 16.6427C13.9276 16.6427 12.2777 7.41721 4.64767 1.75187C4.64767 1.75187 0.142854 -1.59644 0.142854 2.72686V31.5335Z" fill="url(#paint0_linear_495_1255)"/>
<defs>
<linearGradient id="paint0_linear_495_1255" x1="14.6489" y1="0.515411" x2="14.6489" y2="33.4835" gradientUnits="userSpaceOnUse">
<stop stop-color="#0177FB"/>
<stop offset="1" stop-color="#004CF4"/>
</linearGradient>
</defs>
</svg>
