<svg width="21" height="20" viewBox="0 0 21 20" fill="none" xmlns="http://www.w3.org/2000/svg">
<path d="M6.87499 17.425C6.84999 17.425 6.81665 17.4417 6.79165 17.4417C5.17499 16.6417 3.85832 15.3167 3.04999 13.7C3.04999 13.675 3.06665 13.6417 3.06665 13.6167C4.08332 13.9167 5.13332 14.1417 6.17499 14.3167C6.35832 15.3667 6.57499 16.4083 6.87499 17.425Z" fill="url(#paint0_linear_611_165)"/>
<path d="M17.95 13.7083C17.125 15.3667 15.75 16.7083 14.075 17.5167C14.3917 16.4583 14.6583 15.3917 14.8333 14.3167C15.8833 14.1417 16.9167 13.9167 17.9333 13.6167C17.925 13.65 17.95 13.6833 17.95 13.7083Z" fill="url(#paint1_linear_611_165)"/>
<path d="M18.0167 6.425C16.9667 6.10834 15.9083 5.85 14.8333 5.66667C14.6583 4.59167 14.4 3.525 14.075 2.48334C15.8 3.30834 17.1917 4.7 18.0167 6.425Z" fill="url(#paint2_linear_611_165)"/>
<path d="M6.875 2.57499C6.575 3.59165 6.35834 4.62499 6.18334 5.67499C5.10834 5.84165 4.04167 6.10832 2.98334 6.42499C3.79167 4.74999 5.13334 3.37499 6.79167 2.54999C6.81667 2.54999 6.85 2.57499 6.875 2.57499Z" fill="url(#paint3_linear_611_165)"/>
<path d="M13.4083 5.49166C11.475 5.27499 9.52501 5.27499 7.59167 5.49166C7.80001 4.34999 8.06667 3.20832 8.44167 2.10832C8.45834 2.04166 8.45001 1.99166 8.45834 1.92499C9.11667 1.76666 9.79167 1.66666 10.5 1.66666C11.2 1.66666 11.8833 1.76666 12.5333 1.92499C12.5417 1.99166 12.5417 2.04166 12.5583 2.10832C12.9333 3.21666 13.2 4.34999 13.4083 5.49166Z" fill="url(#paint4_linear_611_165)"/>
<path d="M5.99169 12.9083C4.84169 12.7 3.70835 12.4333 2.60835 12.0583C2.54169 12.0417 2.49169 12.05 2.42502 12.0417C2.26669 11.3833 2.16669 10.7083 2.16669 10C2.16669 9.30001 2.26669 8.61667 2.42502 7.96667C2.49169 7.95834 2.54169 7.95834 2.60835 7.94167C3.71669 7.57501 4.84169 7.30001 5.99169 7.09167C5.78335 9.02501 5.78335 10.975 5.99169 12.9083Z" fill="url(#paint5_linear_611_165)"/>
<path d="M18.8334 10C18.8334 10.7083 18.7334 11.3833 18.575 12.0417C18.5084 12.05 18.4584 12.0417 18.3917 12.0583C17.2834 12.425 16.15 12.7 15.0084 12.9083C15.225 10.975 15.225 9.02501 15.0084 7.09167C16.15 7.30001 17.2917 7.56667 18.3917 7.94167C18.4584 7.95834 18.5084 7.96667 18.575 7.96667C18.7334 8.62501 18.8334 9.30001 18.8334 10Z" fill="url(#paint6_linear_611_165)"/>
<path d="M13.4083 14.5083C13.2 15.6583 12.9333 16.7917 12.5583 17.8917C12.5417 17.9583 12.5417 18.0083 12.5333 18.075C11.8833 18.2333 11.2 18.3333 10.5 18.3333C9.79167 18.3333 9.11667 18.2333 8.45834 18.075C8.45001 18.0083 8.45834 17.9583 8.44167 17.8917C8.07501 16.7833 7.80001 15.6583 7.59167 14.5083C8.55834 14.6167 9.52501 14.6917 10.5 14.6917C11.475 14.6917 12.45 14.6167 13.4083 14.5083Z" fill="url(#paint7_linear_611_165)"/>
<path d="M13.6361 13.1361C11.5519 13.3991 9.44816 13.3991 7.36391 13.1361C7.10095 11.0519 7.10095 8.94813 7.36391 6.86388C9.44816 6.60092 11.5519 6.60092 13.6361 6.86388C13.8991 8.94813 13.8991 11.0519 13.6361 13.1361Z" fill="url(#paint8_linear_611_165)"/>
<defs>
<linearGradient id="paint0_linear_611_165" x1="4.96249" y1="13.6167" x2="4.96249" y2="17.4417" gradientUnits="userSpaceOnUse">
<stop stop-color="#0177FB"/>
<stop offset="1" stop-color="#004CF4"/>
</linearGradient>
<linearGradient id="paint1_linear_611_165" x1="16.0125" y1="13.6167" x2="16.0125" y2="17.5167" gradientUnits="userSpaceOnUse">
<stop stop-color="#0177FB"/>
<stop offset="1" stop-color="#004CF4"/>
</linearGradient>
<linearGradient id="paint2_linear_611_165" x1="16.0458" y1="2.48334" x2="16.0458" y2="6.425" gradientUnits="userSpaceOnUse">
<stop stop-color="#0177FB"/>
<stop offset="1" stop-color="#004CF4"/>
</linearGradient>
<linearGradient id="paint3_linear_611_165" x1="4.92917" y1="2.54999" x2="4.92917" y2="6.42499" gradientUnits="userSpaceOnUse">
<stop stop-color="#0177FB"/>
<stop offset="1" stop-color="#004CF4"/>
</linearGradient>
<linearGradient id="paint4_linear_611_165" x1="10.5" y1="1.66666" x2="10.5" y2="5.49166" gradientUnits="userSpaceOnUse">
<stop stop-color="#0177FB"/>
<stop offset="1" stop-color="#004CF4"/>
</linearGradient>
<linearGradient id="paint5_linear_611_165" x1="4.07919" y1="7.09167" x2="4.07919" y2="12.9083" gradientUnits="userSpaceOnUse">
<stop stop-color="#0177FB"/>
<stop offset="1" stop-color="#004CF4"/>
</linearGradient>
<linearGradient id="paint6_linear_611_165" x1="16.9209" y1="7.09167" x2="16.9209" y2="12.9083" gradientUnits="userSpaceOnUse">
<stop stop-color="#0177FB"/>
<stop offset="1" stop-color="#004CF4"/>
</linearGradient>
<linearGradient id="paint7_linear_611_165" x1="10.5" y1="14.5083" x2="10.5" y2="18.3333" gradientUnits="userSpaceOnUse">
<stop stop-color="#0177FB"/>
<stop offset="1" stop-color="#004CF4"/>
</linearGradient>
<linearGradient id="paint8_linear_611_165" x1="10.5" y1="6.66666" x2="10.5" y2="13.3333" gradientUnits="userSpaceOnUse">
<stop stop-color="#0177FB"/>
<stop offset="1" stop-color="#004CF4"/>
</linearGradient>
</defs>
</svg>
