<svg width="28" height="32" viewBox="0 0 28 32" fill="none" xmlns="http://www.w3.org/2000/svg">
<g clip-path="url(#clip0_494_1196)">
<path fill-rule="evenodd" clip-rule="evenodd" d="M7.20369e-07 30.1075C7.20369e-07 30.1075 -0.00930371 32.0003 2.08696 32.0003C4.18322 32.0003 7.30435 29.4192 7.30435 29.4192C7.30435 29.4192 3.42609 21.944 3.47826 12.126C3.47826 12.126 8.3347 23.2823 13.5652 26.408C13.5652 26.408 17.9843 22.4943 19.7391 14.621C19.7391 14.621 21.2208 16.8213 21.1304 21.59L26.6087 18.4066C26.6087 18.4066 28.0443 17.7097 28 16.1697C27.9505 14.4476 25.8261 13.5886 25.8261 13.5886L14.4348 7.13593C14.4348 7.13593 15.3385 11.214 13.3043 15.6535C13.3043 15.6535 11.712 6.69861 4.34783 1.19946C4.34783 1.19946 7.20369e-07 -2.05063 7.20369e-07 2.14585V30.1075Z" fill="white"/>
</g>
<defs>
<clipPath id="clip0_494_1196">
<rect width="28" height="32" fill="white"/>
</clipPath>
</defs>
</svg>
