<svg width="34" height="34" viewBox="0 0 34 34" fill="none" xmlns="http://www.w3.org/2000/svg">
<path fill-rule="evenodd" clip-rule="evenodd" d="M33.6666 17C33.6666 26.2048 26.2047 33.6667 17 33.6667C7.79523 33.6667 0.333313 26.2048 0.333313 17C0.333313 7.79526 7.79523 0.333344 17 0.333344C26.2047 0.333344 33.6666 7.79526 33.6666 17ZM17 9.91668C15.9644 9.91668 15.125 10.7561 15.125 11.7917C15.125 12.482 14.5653 13.0417 13.875 13.0417C13.1846 13.0417 12.625 12.482 12.625 11.7917C12.625 9.37543 14.5837 7.41668 17 7.41668C19.4162 7.41668 21.375 9.37543 21.375 11.7917C21.375 12.9764 20.9024 14.0533 20.1382 14.8399C19.9845 14.9982 19.8378 15.1448 19.6979 15.2846C19.3381 15.644 19.023 15.9589 18.7465 16.3142C18.3814 16.7832 18.25 17.1279 18.25 17.4167V18.6667C18.25 19.357 17.6903 19.9167 17 19.9167C16.3096 19.9167 15.75 19.357 15.75 18.6667V17.4167C15.75 16.3247 16.2583 15.4407 16.7736 14.7787C17.1548 14.2888 17.634 13.8106 18.0229 13.4225C18.1403 13.3054 18.2494 13.1965 18.3451 13.098C18.6743 12.7591 18.875 12.3001 18.875 11.7917C18.875 10.7561 18.0355 9.91668 17 9.91668ZM17 25.3333C17.9205 25.3333 18.6666 24.5872 18.6666 23.6667C18.6666 22.7462 17.9205 22 17 22C16.0795 22 15.3333 22.7462 15.3333 23.6667C15.3333 24.5872 16.0795 25.3333 17 25.3333Z" fill="url(#paint0_linear_539_7)"/>
<defs>
<linearGradient id="paint0_linear_539_7" x1="17" y1="0.333344" x2="17" y2="33.6667" gradientUnits="userSpaceOnUse">
<stop stop-color="#0177FB"/>
<stop offset="1" stop-color="#004CF4"/>
</linearGradient>
</defs>
</svg>
