<svg width="40" height="40" viewBox="0 0 40 40" fill="none" xmlns="http://www.w3.org/2000/svg">
<path fill-rule="evenodd" clip-rule="evenodd" d="M36.6666 20C36.6666 29.2047 29.2047 36.6667 20 36.6667C10.7952 36.6667 3.33331 29.2047 3.33331 20C3.33331 10.7952 10.7952 3.33333 20 3.33333C29.2047 3.33333 36.6666 10.7952 36.6666 20ZM20 12.9167C18.9644 12.9167 18.125 13.7561 18.125 14.7917C18.125 15.482 17.5653 16.0417 16.875 16.0417C16.1846 16.0417 15.625 15.482 15.625 14.7917C15.625 12.3754 17.5837 10.4167 20 10.4167C22.4162 10.4167 24.375 12.3754 24.375 14.7917C24.375 15.9764 23.9024 17.0533 23.1382 17.8399C22.9845 17.9982 22.8378 18.1448 22.6979 18.2846C22.3381 18.644 22.023 18.9589 21.7465 19.3142C21.3814 19.7832 21.25 20.1279 21.25 20.4167V21.6667C21.25 22.357 20.6903 22.9167 20 22.9167C19.3096 22.9167 18.75 22.357 18.75 21.6667V20.4167C18.75 19.3247 19.2583 18.4407 19.7736 17.7787C20.1548 17.2888 20.634 16.8106 21.0229 16.4224C21.1403 16.3054 21.2494 16.1965 21.3451 16.0979C21.6743 15.7591 21.875 15.3001 21.875 14.7917C21.875 13.7561 21.0355 12.9167 20 12.9167ZM20 28.3333C20.9205 28.3333 21.6666 27.5871 21.6666 26.6667C21.6666 25.7462 20.9205 25 20 25C19.0795 25 18.3333 25.7462 18.3333 26.6667C18.3333 27.5871 19.0795 28.3333 20 28.3333Z" fill="white"/>
</svg>
