<svg width="34" height="34" viewBox="0 0 34 34" fill="none" xmlns="http://www.w3.org/2000/svg">
<path fill-rule="evenodd" clip-rule="evenodd" d="M33.6666 17C33.6666 26.2047 26.2047 33.6667 16.9999 33.6667C7.79517 33.6667 0.333252 26.2047 0.333252 17C0.333252 7.79525 7.79517 0.333328 16.9999 0.333328C26.2047 0.333328 33.6666 7.79525 33.6666 17ZM23.7171 11.9494C24.2053 12.4376 24.2053 13.2291 23.7171 13.7172L15.3838 22.0505C14.8956 22.5387 14.1042 22.5387 13.616 22.0505L10.2827 18.7172C9.79455 18.2291 9.79455 17.4376 10.2827 16.9494C10.7709 16.4613 11.5623 16.4613 12.0505 16.9494L14.4999 19.3989L18.2246 15.6742L21.9494 11.9494C22.4375 11.4613 23.229 11.4613 23.7171 11.9494Z" fill="url(#paint0_linear_539_35)"/>
<defs>
<linearGradient id="paint0_linear_539_35" x1="16.9999" y1="0.333328" x2="16.9999" y2="33.6667" gradientUnits="userSpaceOnUse">
<stop stop-color="#0177FB"/>
<stop offset="1" stop-color="#004CF4"/>
</linearGradient>
</defs>
</svg>
